<?xml version="1.0" encoding="UTF-8"?>
<svg version="1.1" xmlns="http://www.w3.org/2000/svg" width="500" height="500">
<path d="M0 0 C165 0 330 0 500 0 C500 165 500 330 500 500 C335 500 170 500 0 500 C0 335 0 170 0 0 Z " fill="#FBFBFB" transform="translate(0,0)"/>
<path d="M0 0 C5.58852358 4.50584665 9.99414559 9.46553389 13 16 C13 16.99 13 17.98 13 19 C10.8125 20.60546875 10.8125 20.60546875 8 22.1875 C7.071875 22.71730469 6.14375 23.24710938 5.1875 23.79296875 C4.465625 24.19128906 3.74375 24.58960938 3 25 C3.27585937 25.51046875 3.55171875 26.0209375 3.8359375 26.546875 C7.56880068 34.41344573 10.8948504 43.23046605 10 52 C11.32 52 12.64 52 14 52 C14 76.42 14 100.84 14 126 C5.75 126 -2.5 126 -11 126 C-11 120.06 -11 114.12 -11 108 C-11.99 108 -12.98 108 -14 108 C-14.185625 108.86625 -14.185625 108.86625 -14.375 109.75 C-15.00648824 112.02335767 -15.88858191 113.9253529 -17 116 C-17.66 116 -18.32 116 -19 116 C-19 116.66 -19 117.32 -19 118 C-19.66 118 -20.32 118 -21 118 C-21.33 118.99 -21.66 119.98 -22 121 C-23.6015625 122.31640625 -23.6015625 122.31640625 -25.625 123.5625 C-26.27726562 123.97628906 -26.92953125 124.39007813 -27.6015625 124.81640625 C-33.89021709 127.91976511 -39.88040792 128.35796818 -46.75 128.3125 C-47.63816406 128.30686035 -48.52632813 128.3012207 -49.44140625 128.29541016 C-56.02509404 128.17371315 -61.86382488 127.52890576 -68 125 C-69.50626953 124.37931641 -69.50626953 124.37931641 -71.04296875 123.74609375 C-83.36073354 118.13041713 -91.31310268 108.9148787 -96.4765625 96.4296875 C-97.7320448 92.97160466 -98.90923178 89.51333584 -100 86 C-100.35449219 84.93265625 -100.70898438 83.8653125 -101.07421875 82.765625 C-106.28910892 61.55400422 -103.90895782 36.15704838 -93.12109375 17.1796875 C-84.08605186 3.63544423 -72.43951431 -5.52762427 -56.3515625 -9.125 C-36.98683813 -12.75917436 -16.80252007 -10.48639205 0 0 Z " fill="#1E7AB8" transform="translate(452,184)"/>
<path d="M0 0 C9.9 0 19.8 0 30 0 C37.81712062 11.16731518 37.81712062 11.16731518 41.0625 16.5625 C43.3385158 20.31200579 45.64595617 24.00676109 48.125 27.625 C50.27986637 30.80212104 52.1395927 34.0456696 53.9375 37.4375 C55.88292155 41.08579704 57.95302242 44.46237228 60.375 47.8125 C64.04263722 52.89514582 67.06630562 58.23139342 70.10546875 63.703125 C73.36438219 69.50707252 73.36438219 69.50707252 77.625 74.5625 C79.44751655 76.46785821 80.02665073 78.56662683 81 81 C81.98095748 82.01868662 82.97702078 83.02351983 84 84 C84 84.66 84 85.32 84 86 C84.66 86 85.32 86 86 86 C86 57.62 86 29.24 86 0 C94.58 0 103.16 0 112 0 C112 44.55 112 89.1 112 135 C102.76 135 93.52 135 84 135 C82.68 132.69 81.36 130.38 80 128 C78.75991469 125.95229611 77.50987708 123.91058653 76.25 121.875 C75.90420898 121.31498291 75.55841797 120.75496582 75.20214844 120.17797852 C73.51227395 117.44131642 71.81855509 114.70704208 70.125 111.97265625 C67.06378662 107.01731708 64.02504784 102.05178467 61.0390625 97.05078125 C60.51666992 96.17623291 59.99427734 95.30168457 59.45605469 94.40063477 C58.43112728 92.68234619 57.40821394 90.96285403 56.38769531 89.24194336 C53.51647793 84.42693296 50.52240796 79.7284266 47.38818359 75.08056641 C45.46883939 72.20391299 43.67081454 69.26795996 41.875 66.3125 C39.89877937 63.06245041 37.9094626 59.86797944 35.7578125 56.73046875 C34 54 34 54 34 52 C33.34 52 32.68 52 32 52 C31.74605469 51.36191406 31.49210937 50.72382813 31.23046875 50.06640625 C30.88628906 49.24011719 30.54210937 48.41382813 30.1875 47.5625 C29.85105469 46.73878906 29.51460938 45.91507813 29.16796875 45.06640625 C28.11596912 42.66627512 28.11596912 42.66627512 25 42 C25 72.36 25 102.72 25 134 C16.75 134 8.5 134 0 134 C0 89.78 0 45.56 0 0 Z " fill="#1E79B6" transform="translate(233,176)"/>
<path d="M0 0 C8.91 0 17.82 0 27 0 C27.495 26.235 27.495 26.235 28 53 C30.10998595 53.23352822 30.10998595 53.23352822 31.48925781 51.5378418 C32.05483398 50.86922119 32.62041016 50.20060059 33.203125 49.51171875 C34.13801758 48.412229 34.13801758 48.412229 35.09179688 47.29052734 C35.72150391 46.53465332 36.35121094 45.7787793 37 45 C37.56267578 44.32533691 38.12535156 43.65067383 38.70507812 42.95556641 C40.39472839 40.91432126 42.07362785 38.8646601 43.75 36.8125 C48.08344108 31.52616473 52.44303823 26.26653671 56.875 21.0625 C64.68786703 12.03107614 64.68786703 12.03107614 71.70239258 2.3918457 C74 0 74 0 77.02441406 -0.56762695 C78.17651367 -0.54144287 79.32861328 -0.51525879 80.515625 -0.48828125 C81.76601562 -0.47216797 83.01640625 -0.45605469 84.3046875 -0.43945312 C85.60664062 -0.39755859 86.90859375 -0.35566406 88.25 -0.3125 C90.22613281 -0.27866211 90.22613281 -0.27866211 92.2421875 -0.24414062 C95.49593404 -0.18519594 98.74739671 -0.10295053 102 0 C101.14774013 4.23866297 98.93862755 6.71290003 96.125 9.875 C92.07935853 14.53220739 88.16099733 19.25412231 84.375 24.125 C79.67350975 30.15946394 74.86746598 36.0981975 70 42 C67.71134705 44.77963086 65.42645395 47.56147661 63.16015625 50.359375 C61.73612903 52.10013883 60.28585479 53.81980306 58.80859375 55.515625 C58.14988281 56.29421875 57.49117187 57.0728125 56.8125 57.875 C56.22082031 58.55304688 55.62914062 59.23109375 55.01953125 59.9296875 C53.74671683 61.97845076 53.74671683 61.97845076 54.484375 64.32421875 C56.47341184 67.83579152 58.86764326 70.83509949 61.4375 73.9375 C62.52667575 75.27422318 63.61520287 76.61147509 64.703125 77.94921875 C65.25419922 78.62388184 65.80527344 79.29854492 66.37304688 79.99365234 C68.85034412 83.04863866 71.26863303 86.14870082 73.6875 89.25 C76.8486038 93.2909239 80.04441177 97.2945279 83.3125 101.25 C88.0098994 106.94973778 92.52741836 112.78535891 97.0402832 118.63183594 C97.89432739 119.73640137 97.89432739 119.73640137 98.765625 120.86328125 C99.31154297 121.57178223 99.85746094 122.2802832 100.41992188 123.01025391 C101.86527703 124.83034731 103.37553651 126.559047 104.921875 128.29296875 C107 131 107 131 107 135 C102.75048792 135.29939657 98.50671289 135.51550918 94.24975586 135.65917969 C92.80661082 135.71910266 91.36418161 135.80069404 89.92358398 135.90527344 C85.0417581 136.25047014 80.75596012 136.26970518 76 135 C72.0476454 131.49323748 69.64689372 127.52717939 67 123 C65.61586531 121.22415778 64.20348023 119.46954635 62.75 117.75 C60.05265638 114.49229274 57.369751 111.22515598 54.71875 107.9296875 C54.14543945 107.21844727 53.57212891 106.50720703 52.98144531 105.77441406 C51.85368697 104.37441626 50.72793163 102.97280183 49.60449219 101.56933594 C46.5802827 97.82392591 43.42615414 94.39021546 40 91 C38.66666667 89 37.33333333 87 36 85 C34.37347684 83.29413425 32.70993434 81.6222454 31 80 C30.01 79.01 29.02 78.02 28 77 C27.67 96.14 27.34 115.28 27 135 C18.09 135 9.18 135 0 135 C0 90.45 0 45.9 0 0 Z " fill="#207AB6" transform="translate(38,176)"/>
<path d="M0 0 C55.48648649 0 55.48648649 0 67.75 10.3125 C75.24210146 19.26139896 75.49703113 28.6990816 75 40 C73.67508556 47.4676996 70.13084879 53.59518584 64.1875 58.3125 C60.33880357 60.98701786 56.4508771 62.61227406 52 64 C51.175 64.34289062 50.35 64.68578125 49.5 65.0390625 C44.4074252 66.4372471 39.38313428 66.46902273 34.125 66.625 C30.45375 66.74875 26.7825 66.8725 23 67 C22.67 79.21 22.34 91.42 22 104 C14.74 104 7.48 104 0 104 C0 69.68 0 35.36 0 0 Z " fill="#237BB5" transform="translate(152,176)"/>
<path d="M0 0 C0.66 0.33 1.32 0.66 2 1 C1.67 1.99 1.34 2.98 1 4 C2.98 4.99 4.96 5.98 7 7 C7 8.32 7 9.64 7 11 C7.66 11 8.32 11 9 11 C9.33 7.7 9.66 4.4 10 1 C12.475 1.495 12.475 1.495 15 2 C15 2.66 15 3.32 15 4 C15.99 3.67 16.98 3.34 18 3 C18.2475 3.639375 18.495 4.27875 18.75 4.9375 C19.1625 5.618125 19.575 6.29875 20 7 C20.9590625 7.2165625 20.9590625 7.2165625 21.9375 7.4375 C24 8 24 8 25.8125 10.4375 C26.4003125 11.7059375 26.4003125 11.7059375 27 13 C26.67 13.66 26.34 14.32 26 15 C23.69 14.34 21.38 13.68 19 13 C19 13.66 19 14.32 19 15 C19.99 15.33 20.98 15.66 22 16 C19.35261084 17.4606285 18.10551666 18 15 18 C14.67 18.66 14.34 19.32 14 20 C13.34 20 12.68 20 12 20 C11.731875 20.94875 11.46375 21.8975 11.1875 22.875 C10 26 10 26 7 28 C6.26656572 31.06556598 6.26656572 31.06556598 6 34 C5.34 33.67 4.68 33.34 4 33 C4 32.34 4 31.68 4 31 C0.37 31 -3.26 31 -7 31 C-7.26932521 35.65052872 -7.26932521 35.65052872 -6 40 C-5.01 40 -4.02 40 -3 40 C-2.67 39.34 -2.34 38.68 -2 38 C-1.01 38.33 -0.02 38.66 1 39 C0.67 40.32 0.34 41.64 0 43 C1.32 43 2.64 43 4 43 C4.33 44.65 4.66 46.3 5 48 C8.04386724 48.08226668 10.07175348 47.97608217 13 47 C13 50.63 13 54.26 13 58 C13.77190674 57.98952637 14.54381348 57.97905273 15.33911133 57.96826172 C18.83020788 57.92673546 22.32125249 57.90068443 25.8125 57.875 C27.02744141 57.85824219 28.24238281 57.84148437 29.49414062 57.82421875 C30.65751953 57.81777344 31.82089844 57.81132812 33.01953125 57.8046875 C34.62985229 57.78897705 34.62985229 57.78897705 36.27270508 57.77294922 C39 58 39 58 42 60 C36.14921781 72.15162455 36.14921781 72.15162455 31.625 73.9375 C28.76022091 74.89839869 28.76022091 74.89839869 26.375 77.625 C25.59125 78.40875 24.8075 79.1925 24 80 C23.01 80 22.02 80 21 80 C21 80.66 21 81.32 21 82 C20.01 82 19.02 82 18 82 C17.71125 82.598125 17.4225 83.19625 17.125 83.8125 C16 86 16 86 14 89 C13.34 89 12.68 89 12 89 C11.8638491 81.78400227 11.8638491 81.78400227 12.46875 78.30078125 C13.50766049 72.76466343 13.50766049 72.76466343 11.5078125 67.73046875 C10.23035068 66.38887732 8.92855106 65.06996806 7.6015625 63.77734375 C6 62 6 62 5.4375 58.75 C5.96937822 56.14970646 6.69198341 54.28902904 8 52 C8 51.34 8 50.68 8 50 C7.071875 49.896875 6.14375 49.79375 5.1875 49.6875 C1.85530145 48.96879051 1.10378712 48.50450848 -1 46 C-3.85512398 43.89763813 -3.85512398 43.89763813 -6.9375 43.0625 C-11.28799417 41.55314488 -13.26865817 40.14925144 -15.75 36.25 C-18.74999218 28.45002034 -16.17157608 21.37415985 -13 14 C-9.68247777 8.27321091 -5.18013842 4.04602528 0 0 Z " fill="#89C359" transform="translate(395,200)"/>
<path d="M0 0 C25.08 0 50.16 0 76 0 C76 6.6 76 13.2 76 20 C50.92 20 25.84 20 0 20 C0 13.4 0 6.8 0 0 Z " fill="#1C75B1" transform="translate(153,290)"/>
<path d="M0 0 C3.67125 -0.061875 7.3425 -0.12375 11.125 -0.1875 C12.84420654 -0.22846802 12.84420654 -0.22846802 14.59814453 -0.27026367 C20.13625217 -0.3154192 24.2694756 -0.23829394 29 3 C33.30772265 7.65699746 34.37423911 11.3967186 34.2734375 17.5859375 C33.82424437 21.55167112 32.60228143 24.95422198 30 28 C23.89251189 32.65449698 18.54016752 32.48948882 11.0625 32.25 C7.411875 32.1675 3.76125 32.085 0 32 C0 21.44 0 10.88 0 0 Z " fill="#D7D9D9" transform="translate(173,193)"/>
<path d="M0 0 C0.33 0 0.66 0 1 0 C1 44.22 1 88.44 1 134 C9.25 134 17.5 134 26 134 C26 103.64 26 73.28 26 42 C27.98 42.495 27.98 42.495 30 43 C29.01 43.99 29.01 43.99 28 45 C27.83476047 48.01958529 27.79382664 50.94646253 27.83984375 53.96484375 C27.84504532 54.903246 27.85024689 55.84164825 27.85560608 56.80848694 C27.87344816 59.85164586 27.90432623 62.89447246 27.9375 65.9375 C28.16472202 88.98571657 27.53646153 111.93215406 27 135 C-7.98 135 -42.96 135 -79 135 C-79 134.67 -79 134.34 -79 134 C-53.92 134 -28.84 134 -3 134 C-3 127.4 -3 120.8 -3 114 C-2.34 114 -1.68 114 -1 114 C-1.00222061 112.70453751 -1.00444122 111.40907501 -1.00672913 110.07435608 C-1.0270271 97.84804379 -1.0420042 85.62173492 -1.05181217 73.39540958 C-1.05702409 67.11019754 -1.064091 60.82499912 -1.07543945 54.53979492 C-1.08632846 48.47086389 -1.09228958 42.40194595 -1.09487724 36.33300591 C-1.09672066 34.02104931 -1.10032036 31.70909341 -1.10573006 29.39714241 C-1.1130203 26.15154615 -1.11398758 22.90600356 -1.11352539 19.66040039 C-1.11712067 18.71093033 -1.12071594 17.76146027 -1.12442017 16.78321838 C-1.11571517 11.1102388 -0.72358451 5.62791188 0 0 Z " fill="#9CB7CA" transform="translate(232,176)"/>
<path d="M0 0 C0.33 0 0.66 0 1 0 C1 41.25 1 82.5 1 125 C-1.98243555 126.49121778 -5.02615752 126.13001472 -8.29541016 126.11352539 C-9.42238564 126.11374443 -9.42238564 126.11374443 -10.5721283 126.1139679 C-13.0611355 126.11326996 -15.55006833 126.10548314 -18.0390625 126.09765625 C-19.76256265 126.09579165 -21.48606334 126.09436794 -23.20956421 126.09336853 C-27.75025897 126.08954669 -32.29092185 126.07971922 -36.831604 126.06866455 C-41.46325245 126.05844329 -46.09490603 126.05386937 -50.7265625 126.04882812 C-59.81772236 126.03809667 -68.90885853 126.02102422 -78 126 C-78 125.67 -78 125.34 -78 125 C-52.92 125 -27.84 125 -2 125 C-2 118.4 -2 111.8 -2 105 C-1.34 105 -0.68 105 0 105 C0 70.35 0 35.7 0 0 Z " fill="#C6D4DE" transform="translate(231,185)"/>
<path d="M0 0 C0.66 0.33 1.32 0.66 2 1 C0.10241924 8.34064136 -2.47929139 13.93968491 -8.8984375 18.28515625 C-15.53914646 21.72894398 -22.64766282 21.79082967 -30 22 C-25.30768716 14.10838295 -25.30768716 14.10838295 -23.00390625 13.296875 C-22.19824219 13.11640625 -21.39257812 12.9359375 -20.5625 12.75 C-15.17146315 11.28683035 -11.04399227 8.73827464 -6.4453125 5.62109375 C-4.34203722 4.22674992 -2.28188449 3.06664833 0 2 C0 1.34 0 0.68 0 0 Z " fill="#18679B" transform="translate(438,268)"/>
<path d="M0 0 C0.33 0.66 0.66 1.32 1 2 C1.66 1.67 2.32 1.34 3 1 C3 2.65 3 4.3 3 6 C4.98 6.66 6.96 7.32 9 8 C9.29296875 14.0546875 9.29296875 14.0546875 9 16 C5.77786243 18.14809171 4.72224599 18.29386153 1 18 C0 17 0 17 -0.0625 14.4375 C-0.041875 13.633125 -0.02125 12.82875 0 12 C-1.32 12 -2.64 12 -4 12 C-4 10.68 -4 9.36 -4 8 C-4.66 7.67 -5.32 7.34 -6 7 C-6.33 7.99 -6.66 8.98 -7 10 C-8.32 9.67 -9.64 9.34 -11 9 C-11.84454356 5.62182575 -12.10844919 3.32534757 -11 0 C-7.02389268 -0.83220851 -3.9167686 -1.23098442 0 0 Z " fill="#2D90C0" transform="translate(399,231)"/>
<path d="M0 0 C3.79143377 3.20813627 5.2925086 6.62035521 6.75 11.25 C6.9668042 11.91588135 7.1836084 12.5817627 7.40698242 13.26782227 C8.89172784 18.05862418 9.50658547 22.03546237 9 27 C5.04 27 1.08 27 -3 27 C-2.82082031 26.11957031 -2.64164062 25.23914063 -2.45703125 24.33203125 C-2.13798828 22.58986328 -2.13798828 22.58986328 -1.8125 20.8125 C-1.59207031 19.66394531 -1.37164062 18.51539063 -1.14453125 17.33203125 C-0.97732722 13.47730045 -1.82033552 12.09106072 -4 9 C-4 8.34 -4 7.68 -4 7 C-3.34 6.67 -2.68 6.34 -2 6 C-2.33 4.68 -2.66 3.36 -3 2 C-2.01 1.34 -1.02 0.68 0 0 Z " fill="#79A953" transform="translate(453,209)"/>
<path d="M0 0 C0 1.98 0 3.96 0 6 C-0.99 6.495 -0.99 6.495 -2 7 C-0.68 7 0.64 7 2 7 C2.66 6.01 3.32 5.02 4 4 C3.34 3.67 2.68 3.34 2 3 C2 2.34 2 1.68 2 1 C3.98 1 5.96 1 8 1 C7.42655063 3.86724686 7.1385485 4.8614515 5 7 C5.99 7.33 6.98 7.66 8 8 C8 8.66 8 9.32 8 10 C5.69 10 3.38 10 1 10 C0.67 10.99 0.34 11.98 0 13 C-1.98 13 -3.96 13 -6 13 C-7.35015859 8.94952424 -6.62084998 6.2079832 -6 2 C-1.125 0 -1.125 0 0 0 Z " fill="#5B9DCA" transform="translate(88,347)"/>
<path d="M0 0 C0.66 0.33 1.32 0.66 2 1 C1.67 2.65 1.34 4.3 1 6 C0.34 6 -0.32 6 -1 6 C-1.33 5.34 -1.66 4.68 -2 4 C-3.32 3.67 -4.64 3.34 -6 3 C-6.33 6.3 -6.66 9.6 -7 13 C-7.66 13 -8.32 13 -9 13 C-9 11.68 -9 10.36 -9 9 C-9.598125 8.87625 -10.19625 8.7525 -10.8125 8.625 C-13 8 -13 8 -16 6 C-15.375 3.5625 -15.375 3.5625 -14 1 C-11.22841653 0.24936281 -8.85785481 0 -6 0 C-3.4832097 -1.25839515 -2.62168527 -0.81927665 0 0 Z " fill="#237EB1" transform="translate(411,198)"/>
<path d="M0 0 C1.00289063 0.10183594 2.00578125 0.20367187 3.0390625 0.30859375 C3.80992187 0.39238281 4.58078125 0.47617188 5.375 0.5625 C5.66796875 6.6171875 5.66796875 6.6171875 5.375 8.5625 C2.15286243 10.71059171 1.09724599 10.85636153 -2.625 10.5625 C-3.625 9.5625 -3.625 9.5625 -3.6875 7 C-3.666875 6.195625 -3.64625 5.39125 -3.625 4.5625 C-4.945 4.5625 -6.265 4.5625 -7.625 4.5625 C-7.625 3.2425 -7.625 1.9225 -7.625 0.5625 C-4.89657939 -0.80171031 -3.01546682 -0.31557211 0 0 Z " fill="#238BCC" transform="translate(402.625,238.4375)"/>
<path d="M0 0 C0.99 0 1.98 0 3 0 C4.6875 2.5 4.6875 2.5 6 5 C6.33 3.35 6.66 1.7 7 0 C7.99 0 8.98 0 10 0 C10 3.96 10 7.92 10 12 C6 11 6 11 4.75 8.9375 C4.37875 7.9784375 4.37875 7.9784375 4 7 C3.67 8.65 3.34 10.3 3 12 C2.01 12 1.02 12 0 12 C0 8.04 0 4.08 0 0 Z " fill="#5B9DCA" transform="translate(186,345)"/>
<path d="M0 0 C0.66 0 1.32 0 2 0 C2 0.66 2 1.32 2 2 C4.97 2 7.94 2 11 2 C11 2.66 11 3.32 11 4 C10.01 4.495 10.01 4.495 9 5 C8.34227572 8.02934491 8.34227572 8.02934491 8 11 C5.66705225 11.04241723 3.33297433 11.04092937 1 11 C0 10 0 10 -0.0625 6.9375 C-0.041875 5.968125 -0.02125 4.99875 0 4 C-0.66 4 -1.32 4 -2 4 C-2 3.34 -2 2.68 -2 2 C-1.34 2 -0.68 2 0 2 C0 1.34 0 0.68 0 0 Z " fill="#DDEBF4" transform="translate(302,346)"/>
<path d="M0 0 C2.33294775 -0.04241723 4.66702567 -0.04092937 7 0 C8 1 8 1 8.0625 4.5625 C8.041875 5.696875 8.02125 6.83125 8 8 C6.35 8.33 4.7 8.66 3 9 C3 9.99 3 10.98 3 12 C2.01 12 1.02 12 0 12 C0 8.04 0 4.08 0 0 Z " fill="#4792C3" transform="translate(406,348)"/>
<path d="M0 0 C0.66 0.99 1.32 1.98 2 3 C0 3 -2 3 -4 3 C-4 4.98 -4 6.96 -4 9 C-3.01 9.33 -2.02 9.66 -1 10 C-1 9.01 -1 8.02 -1 7 C-1.66 7 -2.32 7 -3 7 C-3 6.34 -3 5.68 -3 5 C-1.35 5 0.3 5 2 5 C2 7.31 2 9.62 2 12 C-4.3782235 12.36103152 -4.3782235 12.36103152 -6.9375 10.875 C-8.50422245 8.11019567 -8.38976435 6.11811483 -8 3 C-5.91324884 -0.29487025 -3.75146415 -0.57714833 0 0 Z " fill="#4D95C5" transform="translate(376,345)"/>
<path d="M0 0 C0.66 0 1.32 0 2 0 C2 3.96 2 7.92 2 12 C0.02 12 -1.96 12 -4 12 C-6 10 -6 10 -6.125 6.875 C-6.08375 5.92625 -6.0425 4.9775 -6 4 C-4.35 3.67 -2.7 3.34 -1 3 C-0.67 2.01 -0.34 1.02 0 0 Z " fill="#3A8ABF" transform="translate(178,345)"/>
<path d="M0 0 C4.28025299 3.39468341 6.0082369 7.73531366 7 13 C6.57421875 15.28125 6.57421875 15.28125 6 17 C5.67 15.68 5.34 14.36 5 13 C3.68 13.33 2.36 13.66 1 14 C0.67 11.36 0.34 8.72 0 6 C-0.66 6 -1.32 6 -2 6 C-2.33 4.68 -2.66 3.36 -3 2 C-2.01 1.34 -1.02 0.68 0 0 Z " fill="#71A465" transform="translate(453,209)"/>
<path d="M0 0 C0.66 0 1.32 0 2 0 C2 1.32 2 2.64 2 4 C2.66 4 3.32 4 4 4 C4 2.68 4 1.36 4 0 C4.99 0 5.98 0 7 0 C7.33 0.99 7.66 1.98 8 3 C8.33 2.01 8.66 1.02 9 0 C9.66 0 10.32 0 11 0 C10.67 2.97 10.34 5.94 10 9 C9.01 9 8.02 9 7 9 C6.67 8.01 6.34 7.02 6 6 C5.01 7.485 5.01 7.485 4 9 C3.01 9 2.02 9 1 9 C0.67 6.03 0.34 3.06 0 0 Z " fill="#5499C8" transform="translate(121,348)"/>
<path d="M0 0 C1.2684375 0.12375 1.2684375 0.12375 2.5625 0.25 C4.5625 3.25 4.5625 3.25 4.1875 5.9375 C3.98125 6.700625 3.775 7.46375 3.5625 8.25 C1.25 8.9375 1.25 8.9375 -1.4375 9.25 C-3.3125 8.125 -3.3125 8.125 -4.4375 6.25 C-3.88016338 0.39796547 -3.88016338 0.39796547 0 0 Z " fill="#8DBBDA" transform="translate(115.4375,347.75)"/>
<path d="M0 0 C1.98 0 3.96 0 6 0 C6.66 0.66 7.32 1.32 8 2 C7.625 4.625 7.625 4.625 7 7 C5.35 7 3.7 7 2 7 C2 8.65 2 10.3 2 12 C1.34 12 0.68 12 0 12 C0 8.04 0 4.08 0 0 Z " fill="#5B9DCA" transform="translate(102,345)"/>
<path d="M0 0 C1 1 1 1 1.1875 3.4375 C1 6 1 6 -1 8 C-5.55555556 7.44444444 -5.55555556 7.44444444 -7 6 C-7.04080783 4.00041636 -7.04254356 1.99954746 -7 0 C-4.31633121 -1.3418344 -2.84719317 -0.73004953 0 0 Z " fill="#3E8CC1" transform="translate(233,349)"/>
<path d="M0 0 C2.5 0.125 2.5 0.125 3.5 1.125 C3.54092937 3.45797433 3.54241723 5.79205225 3.5 8.125 C1.1875 8.8125 1.1875 8.8125 -1.5 9.125 C-3.375 8 -3.375 8 -4.5 6.125 C-3.9354067 0.19677033 -3.9354067 0.19677033 0 0 Z " fill="#6FA9D0" transform="translate(390.5,347.875)"/>
<path d="M0 0 C0.66 0 1.32 0 2 0 C2.33 0.99 2.66 1.98 3 3 C3.66 2.01 4.32 1.02 5 0 C5.66 0 6.32 0 7 0 C7.33 0.99 7.66 1.98 8 3 C8.99 2.01 9.98 1.02 11 0 C10.67 2.97 10.34 5.94 10 9 C9.01 9 8.02 9 7 9 C7 7.68 7 6.36 7 5 C6.34 5 5.68 5 5 5 C4.67 6.32 4.34 7.64 4 9 C3.01 8.67 2.02 8.34 1 8 C0.67 5.36 0.34 2.72 0 0 Z " fill="#4E95C5" transform="translate(213,348)"/>
<path d="M0 0 C5.61 0.66 11.22 1.32 17 2 C17 3.65 17 5.3 17 7 C10.95824947 6.56844639 6.10986905 5.37684613 1 2 C0.67 1.34 0.34 0.68 0 0 Z " fill="#196AA0" transform="translate(390,282)"/>
<path d="M0 0 C0.99 0 1.98 0 3 0 C3.33 1.32 3.66 2.64 4 4 C4.99 3.67 5.98 3.34 7 3 C6.814375 3.763125 6.62875 4.52625 6.4375 5.3125 C5.77180827 8.08967375 5.77180827 8.08967375 7 11 C6.01 10.67 5.02 10.34 4 10 C3.67 10.66 3.34 11.32 3 12 C2.01 12 1.02 12 0 12 C0 8.04 0 4.08 0 0 Z " fill="#5599C8" transform="translate(242,345)"/>
<path d="M0 0 C0.66 0 1.32 0 2 0 C2.33 1.32 2.66 2.64 3 4 C3.45375 3.34 3.9075 2.68 4.375 2 C4.91125 1.34 5.4475 0.68 6 0 C6.66 0 7.32 0 8 0 C7.649375 0.556875 7.29875 1.11375 6.9375 1.6875 C5.41492647 5.44318137 6.76108373 8.2832512 8 12 C5 11 5 11 3 8 C2.67 9.32 2.34 10.64 2 12 C1.34 12 0.68 12 0 12 C0 8.04 0 4.08 0 0 Z " fill="#3F8CC1" transform="translate(53,345)"/>
<path d="M0 0 C1.2065625 0.0309375 1.2065625 0.0309375 2.4375 0.0625 C2.7675 1.7125 3.0975 3.3625 3.4375 5.0625 C1.7875 5.0625 0.1375 5.0625 -1.5625 5.0625 C-1.5625 5.7225 -1.5625 6.3825 -1.5625 7.0625 C0.0875 6.7325 1.7375 6.4025 3.4375 6.0625 C3.1075 7.0525 2.7775 8.0425 2.4375 9.0625 C-0.5325 8.5675 -0.5325 8.5675 -3.5625 8.0625 C-3.60491723 5.72955225 -3.60342937 3.39547433 -3.5625 1.0625 C-2.5625 0.0625 -2.5625 0.0625 0 0 Z " fill="#5499C8" transform="translate(137.5625,347.9375)"/>
<path d="M0 0 C2.625 0.375 2.625 0.375 5 1 C5.33 2.32 5.66 3.64 6 5 C4.35 5 2.7 5 1 5 C1 5.66 1 6.32 1 7 C2.32 6.67 3.64 6.34 5 6 C4.67 6.99 4.34 7.98 4 9 C2.35 8.67 0.7 8.34 -1 8 C-1.625 5.125 -1.625 5.125 -2 2 C-1.34 1.34 -0.68 0.68 0 0 Z " fill="#438FC2" transform="translate(357,348)"/>
<path d="M0 0 C2.33294775 -0.04241723 4.66702567 -0.04092937 7 0 C8 1 8 1 8.09765625 2.84765625 C8.04882812 5.92382812 8.04882812 5.92382812 8 9 C7.01 9 6.02 9 5 9 C5 6.69 5 4.38 5 2 C4.01 2.495 4.01 2.495 3 3 C2.34227572 6.02934491 2.34227572 6.02934491 2 9 C1.34 9 0.68 9 0 9 C0 6.03 0 3.06 0 0 Z " fill="#5398C7" transform="translate(262,348)"/>
<path d="M0 0 C2.33294775 -0.04241723 4.66702567 -0.04092937 7 0 C8 1 8 1 8.09765625 2.84765625 C8.04882812 5.92382812 8.04882812 5.92382812 8 9 C7.34 9 6.68 9 6 9 C6 6.69 6 4.38 6 2 C5.01 2 4.02 2 3 2 C3 4.31 3 6.62 3 9 C2.01 9 1.02 9 0 9 C0 6.03 0 3.06 0 0 Z " fill="#5298C7" transform="translate(162,348)"/>
<path d="M0 0 C1.65 0.33 3.3 0.66 5 1 C5.33 3.64 5.66 6.28 6 9 C3.69 9 1.38 9 -1 9 C-1.33 7.68 -1.66 6.36 -2 5 C-0.68 4.34 0.64 3.68 2 3 C1.01 3 0.02 3 -1 3 C-0.67 2.01 -0.34 1.02 0 0 Z " fill="#3E8CC1" transform="translate(286,348)"/>
<path d="M0 0 C1.65 0.33 3.3 0.66 5 1 C5.33 3.64 5.66 6.28 6 9 C3.69 9 1.38 9 -1 9 C-1.33 7.68 -1.66 6.36 -2 5 C-0.68 4.34 0.64 3.68 2 3 C1.01 3 0.02 3 -1 3 C-0.67 2.01 -0.34 1.02 0 0 Z " fill="#3C8BC0" transform="translate(74,348)"/>
<path d="M0 0 C5.75 -0.125 5.75 -0.125 8 1 C8 3.64 8 6.28 8 9 C7.01 9 6.02 9 5 9 C5 6.69 5 4.38 5 2 C4.01 2.495 4.01 2.495 3 3 C2.34227572 6.02934491 2.34227572 6.02934491 2 9 C1.34 9 0.68 9 0 9 C0 6.03 0 3.06 0 0 Z " fill="#4F96C6" transform="translate(63,348)"/>
<path d="M0 0 C0.99 0 1.98 0 3 0 C3 2.31 3 4.62 3 7 C3.66 6.67 4.32 6.34 5 6 C5.65772428 2.97065509 5.65772428 2.97065509 6 0 C6.66 0 7.32 0 8 0 C8 2.97 8 5.94 8 9 C5.125 9.125 5.125 9.125 2 9 C0 7 0 7 -0.125 3.375 C-0.08375 2.26125 -0.0425 1.1475 0 0 Z " fill="#4E95C5" transform="translate(396,348)"/>
<path d="M0 0 C2.625 0.375 2.625 0.375 5 1 C5 2.32 5 3.64 5 5 C3.35 5 1.7 5 0 5 C0 5.66 0 6.32 0 7 C1.65 6.67 3.3 6.34 5 6 C4.67 6.99 4.34 7.98 4 9 C-0.875 8.125 -0.875 8.125 -2 7 C-2.1875 4.5625 -2.1875 4.5625 -2 2 C-1.34 1.34 -0.68 0.68 0 0 Z " fill="#5096C6" transform="translate(200,348)"/>
<path d="M0 0 C0.66 0 1.32 0 2 0 C2 2.31 2 4.62 2 7 C2.99 7 3.98 7 5 7 C5 4.69 5 2.38 5 0 C5.99 0 6.98 0 8 0 C8 2.97 8 5.94 8 9 C5.69 9 3.38 9 1 9 C-0.4783226 6.04335481 -0.06032783 3.25770263 0 0 Z " fill="#5096C6" transform="translate(339,348)"/>
<path d="M0 0 C0.99 0 1.98 0 3 0 C3 0.66 3 1.32 3 2 C3.66 2 4.32 2 5 2 C5 2.66 5 3.32 5 4 C4.34 4 3.68 4 3 4 C3 5.32 3 6.64 3 8 C3.66 8 4.32 8 5 8 C5 8.99 5 9.98 5 11 C3.35 10.67 1.7 10.34 0 10 C-1.125 2.25 -1.125 2.25 0 0 Z " fill="#5D9FCA" transform="translate(333,346)"/>
<path d="M0 0 C0.66 0 1.32 0 2 0 C2.33 1.98 2.66 3.96 3 6 C3.66 6 4.32 6 5 6 C5.33 4.02 5.66 2.04 6 0 C6.66 0 7.32 0 8 0 C8 2.97 8 5.94 8 9 C5.69 9 3.38 9 1 9 C-0.4783226 6.04335481 -0.06032783 3.25770263 0 0 Z " fill="#4590C2" transform="translate(314,348)"/>
<path d="M0 0 C0.66 0 1.32 0 2 0 C2 3.96 2 7.92 2 12 C0.35 12 -1.3 12 -3 12 C-2.01 8.04 -1.02 4.08 0 0 Z " fill="#87C45E" transform="translate(453,224)"/>
<path d="M0 0 C2.26274788 0.35355436 3.95088852 0.97544426 6 2 C5.67 3.65 5.34 5.3 5 7 C4.34 7 3.68 7 3 7 C2.67 6.34 2.34 5.68 2 5 C0.02 5 -1.96 5 -4 5 C-4.66 3.68 -5.32 2.36 -6 1 C-5.38125 1.20625 -4.7625 1.4125 -4.125 1.625 C-3.073125 1.810625 -3.073125 1.810625 -2 2 C-1.34 1.34 -0.68 0.68 0 0 Z " fill="#4D9787" transform="translate(407,197)"/>
<path d="M0 0 C1.65 0 3.3 0 5 0 C7 6.75 7 6.75 7 9 C4.69 9 2.38 9 0 9 C-0.33 7.68 -0.66 6.36 -1 5 C-0.34 5 0.32 5 1 5 C1 5.66 1 6.32 1 7 C1.99 7 2.98 7 4 7 C4 5.35 4 3.7 4 2 C2.35 2 0.7 2 -1 2 C-0.67 1.34 -0.34 0.68 0 0 Z " fill="#4590C3" transform="translate(154,348)"/>
<path d="M0 0 C2.0625 0.4375 2.0625 0.4375 4 1 C4.33 2.65 4.66 4.3 5 6 C3.35 6.33 1.7 6.66 0 7 C-0.33 7.99 -0.66 8.98 -1 10 C-1.02689216 8.52093108 -1.04634621 7.04172517 -1.0625 5.5625 C-1.07410156 4.73878906 -1.08570313 3.91507812 -1.09765625 3.06640625 C-1 1 -1 1 0 0 Z " fill="#92BEDC" transform="translate(409,350)"/>
<path d="M0 0 C0.66 0 1.32 0 2 0 C2 0.66 2 1.32 2 2 C2.66 2 3.32 2 4 2 C4 2.66 4 3.32 4 4 C3.34 4 2.68 4 2 4 C2 5.65 2 7.3 2 9 C2.66 9 3.32 9 4 9 C4 9.66 4 10.32 4 11 C2.125 10.875 2.125 10.875 0 10 C-1.16671276 7.25822503 -2 4.99432393 -2 2 C-1.34 2 -0.68 2 0 2 C0 1.34 0 0.68 0 0 Z " fill="#4F96C6" transform="translate(208,346)"/>
<path d="M0 0 C1.65 0.33 3.3 0.66 5 1 C4.01 1.66 3.02 2.32 2 3 C2.99 3.33 3.98 3.66 5 4 C4.67 5.65 4.34 7.3 4 9 C2.35 8.67 0.7 8.34 -1 8 C-1 7.34 -1 6.68 -1 6 C0.32 6.33 1.64 6.66 3 7 C3 6.34 3 5.68 3 5 C1.68 4.67 0.36 4.34 -1 4 C-0.67 2.68 -0.34 1.36 0 0 Z " fill="#4691C3" transform="translate(294,348)"/>
<path d="M0 0 C0.99 0 1.98 0 3 0 C3 3.96 3 7.92 3 12 C2.01 12 1.02 12 0 12 C0 8.04 0 4.08 0 0 Z " fill="#62A1CC" transform="translate(257,345)"/>
<path d="M0 0 C2.625 0.375 2.625 0.375 5 1 C5 1.66 5 2.32 5 3 C3.35 2.67 1.7 2.34 0 2 C0.33 3.32 0.66 4.64 1 6 C2.32 6 3.64 6 5 6 C4.67 6.99 4.34 7.98 4 9 C-0.875 8.125 -0.875 8.125 -2 7 C-2.1875 4.5625 -2.1875 4.5625 -2 2 C-1.34 1.34 -0.68 0.68 0 0 Z " fill="#418EC1" transform="translate(326,348)"/>
<path d="M0 0 C1.32 0.33 2.64 0.66 4 1 C3.01 1.495 3.01 1.495 2 2 C2.66 2.33 3.32 2.66 4 3 C4 3.66 4 4.32 4 5 C3.01 5 2.02 5 1 5 C1 7.31 1 9.62 1 12 C0.34 12 -0.32 12 -1 12 C-1.2226746 10.56465159 -1.42761906 9.12654475 -1.625 7.6875 C-1.74101562 6.88699219 -1.85703125 6.08648437 -1.9765625 5.26171875 C-2 3 -2 3 0 0 Z " fill="#408DC1" transform="translate(273,345)"/>
<path d="M0 0 C0.66 0 1.32 0 2 0 C2.33 2.31 2.66 4.62 3 7 C1.02 7 -0.96 7 -3 7 C-3.33 5.35 -3.66 3.7 -4 2 C-1.525 2.495 -1.525 2.495 1 3 C0.67 2.01 0.34 1.02 0 0 Z " fill="#ECF4F9" transform="translate(330,348)"/>
<path d="M0 0 C0.66 0 1.32 0 2 0 C2 0.66 2 1.32 2 2 C2.66 2 3.32 2 4 2 C4 2.66 4 3.32 4 4 C3.34 4 2.68 4 2 4 C2 5.65 2 7.3 2 9 C2.66 9 3.32 9 4 9 C4 9.66 4 10.32 4 11 C2.68 10.67 1.36 10.34 0 10 C0 8.02 0 6.04 0 4 C-0.66 4 -1.32 4 -2 4 C-2 3.34 -2 2.68 -2 2 C-1.34 2 -0.68 2 0 2 C0 1.34 0 0.68 0 0 Z " fill="#418EC1" transform="translate(302,346)"/>
<path d="M0 0 C2.475 0.495 2.475 0.495 5 1 C5.33 2.65 5.66 4.3 6 6 C7.65 6.33 9.3 6.66 11 7 C10.01 8.485 10.01 8.485 9 10 C9 9.34 9 8.68 9 8 C7.6078125 7.8453125 7.6078125 7.8453125 6.1875 7.6875 C2.96099626 6.99158743 1.80261425 6.70392137 0 4 C0 2.68 0 1.36 0 0 Z " fill="#7AC176" transform="translate(394,242)"/>
<path d="M0 0 C1.98 0 3.96 0 6 0 C5.42655063 2.86724686 5.1385485 3.8614515 3 6 C3.99 6.66 4.98 7.32 6 8 C4.02 8 2.04 8 0 8 C0.66 6.35 1.32 4.7 2 3 C1.34 2.67 0.68 2.34 0 2 C0 1.34 0 0.68 0 0 Z " fill="#3E8CC0" transform="translate(90,348)"/>
<path d="M0 0 C1.65 0 3.3 0 5 0 C5 0.66 5 1.32 5 2 C4.34 2 3.68 2 3 2 C3 4.31 3 6.62 3 9 C2.01 9 1.02 9 0 9 C0 6.03 0 3.06 0 0 Z " fill="#589CC9" transform="translate(380,348)"/>
<path d="M0 0 C0.33 0 0.66 0 1 0 C1 3.3 1 6.6 1 10 C0.67 9.01 0.34 8.02 0 7 C-1.98 7 -3.96 7 -6 7 C-6 6.01 -6 5.02 -6 4 C-4.02 4 -2.04 4 0 4 C0 2.68 0 1.36 0 0 Z " fill="#B0D0E5" transform="translate(256,346)"/>
<path d="M0 0 C0.66 0.33 1.32 0.66 2 1 C2 1.66 2 2.32 2 3 C2.99 3.33 3.98 3.66 5 4 C3.875 6 3.875 6 2 8 C-1.1875 8.25 -1.1875 8.25 -4 8 C-2.68 7.34 -1.36 6.68 0 6 C0 4.02 0 2.04 0 0 Z " fill="#E2EEF5" transform="translate(88,347)"/>
<path d="M0 0 C2.0625 0.4375 2.0625 0.4375 4 1 C4 1.66 4 2.32 4 3 C3.01 3 2.02 3 1 3 C1 3.66 1 4.32 1 5 C1.66 5 2.32 5 3 5 C3 5.99 3 6.98 3 8 C1.68 7.67 0.36 7.34 -1 7 C-1.04254356 5.00045254 -1.04080783 2.99958364 -1 1 C-0.67 0.67 -0.34 0.34 0 0 Z " fill="#E8F1F7" transform="translate(372,347)"/>
<path d="M0 0 C0.66 0 1.32 0 2 0 C6.09030544 5.14209827 6.09030544 5.14209827 5.75 8.375 C5.5025 8.91125 5.255 9.4475 5 10 C4.67 8.68 4.34 7.36 4 6 C2.68 6.33 1.36 6.66 0 7 C0 4.69 0 2.38 0 0 Z " fill="#29779B" transform="translate(454,216)"/>
<path d="M0 0 C0.99 1.32 1.98 2.64 3 4 C2.67 4.66 2.34 5.32 2 6 C-0.31 5.34 -2.62 4.68 -5 4 C-5.33 4.66 -5.66 5.32 -6 6 C-6 5.34 -6 4.68 -6 4 C-6.66 3.67 -7.32 3.34 -8 3 C-5.36 2.01 -2.72 1.02 0 0 Z " fill="#57A58E" transform="translate(419,209)"/>
<path d="M0 0 C0.66 0 1.32 0 2 0 C2 2.64 2 5.28 2 8 C1.01 8.495 1.01 8.495 0 9 C-2 6 -2 6 -1.6875 3.375 C-1 1 -1 1 0 0 Z " fill="#E9F2F8" transform="translate(61,348)"/>
<path d="M0 0 C0.99 0 1.98 0 3 0 C3.6875 2.3125 3.6875 2.3125 4 5 C2.8125 6.875 2.8125 6.875 1 8 C-1.1875 7.6875 -1.1875 7.6875 -3 7 C-1.68 6.67 -0.36 6.34 1 6 C0.67 4.02 0.34 2.04 0 0 Z " fill="#4691C3" transform="translate(116,349)"/>
<path d="M0 0 C0.66 1.32 1.32 2.64 2 4 C1.34 4.66 0.68 5.32 0 6 C-2.125 5.625 -2.125 5.625 -4 5 C-3.6875 3.0625 -3.6875 3.0625 -3 1 C-2.01 0.67 -1.02 0.34 0 0 Z " fill="#6DA8D0" transform="translate(76,351)"/>
<path d="M0 0 C1.65 0 3.3 0 5 0 C5 0.66 5 1.32 5 2 C4.01 2.495 4.01 2.495 3 3 C2.34227572 6.02934491 2.34227572 6.02934491 2 9 C1.34 9 0.68 9 0 9 C0 6.03 0 3.06 0 0 Z " fill="#418DC1" transform="translate(349,348)"/>
<path d="M0 0 C1.65 0 3.3 0 5 0 C5 0.66 5 1.32 5 2 C4.01 2.495 4.01 2.495 3 3 C2.34227572 6.02934491 2.34227572 6.02934491 2 9 C1.34 9 0.68 9 0 9 C0 6.03 0 3.06 0 0 Z " fill="#3989BF" transform="translate(143,348)"/>
<path d="M0 0 C1.65 0 3.3 0 5 0 C5 0.66 5 1.32 5 2 C4.01 2.495 4.01 2.495 3 3 C2.34227572 6.02934491 2.34227572 6.02934491 2 9 C1.34 9 0.68 9 0 9 C0 6.03 0 3.06 0 0 Z " fill="#3D8CC0" transform="translate(308,348)"/>
<path d="M0 0 C1.65 0 3.3 0 5 0 C5 0.66 5 1.32 5 2 C4.01 2.495 4.01 2.495 3 3 C2.34227572 6.02934491 2.34227572 6.02934491 2 9 C1.34 9 0.68 9 0 9 C0 6.03 0 3.06 0 0 Z " fill="#3D8BC0" transform="translate(278,348)"/>
<path d="M0 0 C1.65 0 3.3 0 5 0 C5 0.66 5 1.32 5 2 C4.01 2.495 4.01 2.495 3 3 C2.34227572 6.02934491 2.34227572 6.02934491 2 9 C1.34 9 0.68 9 0 9 C0 6.03 0 3.06 0 0 Z " fill="#3989BF" transform="translate(236,348)"/>
<path d="M0 0 C0.33 0.66 0.66 1.32 1 2 C2.65 2 4.3 2 6 2 C4.7260411 4.03833424 3.38938077 6.03852126 2 8 C1.34 8 0.68 8 0 8 C0 5.36 0 2.72 0 0 Z " fill="#6CA156" transform="translate(407,281)"/>
<path d="M0 0 C1.98 0 3.96 0 6 0 C6.33 1.65 6.66 3.3 7 5 C4.11424181 4.60196439 3.17810487 4.20990931 1.25 1.9375 C0.8375 1.298125 0.425 0.65875 0 0 Z " fill="#73AE61" transform="translate(418,197)"/>
<path d="M0 0 C0 1.65 0 3.3 0 5 C-1.32 5.33 -2.64 5.66 -4 6 C-4.33 4.68 -4.66 3.36 -5 2 C-1.125 0 -1.125 0 0 0 Z " fill="#68A5CE" transform="translate(289,351)"/>
<path d="M0 0 C0 0.66 0 1.32 0 2 C0.66 2 1.32 2 2 2 C2 3.65 2 5.3 2 7 C1.01 7 0.02 7 -1 7 C-1 6.01 -1 5.02 -1 4 C-2.32 3.67 -3.64 3.34 -5 3 C-2.25 0 -2.25 0 0 0 Z " fill="#CCE1EE" transform="translate(300,348)"/>
<path d="M0 0 C0.66 0 1.32 0 2 0 C2 1.65 2 3.3 2 5 C2.66 5 3.32 5 4 5 C4 6.32 4 7.64 4 9 C3.01 9 2.02 9 1 9 C0.67 6.03 0.34 3.06 0 0 Z " fill="#4791C3" transform="translate(121,348)"/>
<path d="M0 0 C0.99 0.33 1.98 0.66 3 1 C2.34 2.98 1.68 4.96 1 7 C-0.32 6.34 -1.64 5.68 -3 5 C-2.01 3.35 -1.02 1.7 0 0 Z " fill="#8ACA65" transform="translate(393,238)"/>
<path d="M0 0 C0.33 2.31 0.66 4.62 1 7 C0.01 7 -0.98 7 -2 7 C-2.66 5.02 -3.32 3.04 -4 1 C-1 0 -1 0 0 0 Z " fill="#84C261" transform="translate(453,215)"/>
<path d="M0 0 C1.65 0 3.3 0 5 0 C5 1.65 5 3.3 5 5 C4.01 5 3.02 5 2 5 C2 4.34 2 3.68 2 3 C1.34 2.67 0.68 2.34 0 2 C0 1.34 0 0.68 0 0 Z " fill="#9FC6E0" transform="translate(153,350)"/>
<path d="M0 0 C1.32 0.33 2.64 0.66 4 1 C3.67 2.32 3.34 3.64 3 5 C2.01 5 1.02 5 0 5 C0 3.35 0 1.7 0 0 Z " fill="#D6E7F1" transform="translate(228,350)"/>
<path d="M0 0 C1.32 0.33 2.64 0.66 4 1 C3.67 2.32 3.34 3.64 3 5 C2.01 5 1.02 5 0 5 C0 3.35 0 1.7 0 0 Z " fill="#DDEBF4" transform="translate(174,350)"/>
<path d="M0 0 C1.98 0 3.96 0 6 0 C6 0.99 6 1.98 6 3 C4.02 3.33 2.04 3.66 0 4 C0 2.68 0 1.36 0 0 Z " fill="#7CB1D4" transform="translate(357,350)"/>
</svg>
